<mxfile host="app.diagrams.net" agent="Mozilla/5.0 (Windows NT 10.0; Win64; x64; rv:132.0) Gecko/20100101 Firefox/132.0" version="24.8.6">
  <diagram name="Page-1" id="oxEGo03p_GVHYI_b8Tsj">
    <mxGraphModel dx="1750" dy="930" grid="1" gridSize="10" guides="1" tooltips="1" connect="1" arrows="1" fold="1" page="1" pageScale="1" pageWidth="850" pageHeight="1100" math="0" shadow="0">
      <root>
        <mxCell id="0" />
        <mxCell id="1" parent="0" />
        <mxCell id="MSVGr6HDQpO0jh0SAKL9-1" value="&lt;font style=&quot;font-size: 19px;&quot;&gt;Online User Counter&lt;/font&gt;" style="text;html=1;align=center;verticalAlign=middle;whiteSpace=wrap;rounded=0;" vertex="1" parent="1">
          <mxGeometry x="550" y="10" width="290" height="30" as="geometry" />
        </mxCell>
        <mxCell id="MSVGr6HDQpO0jh0SAKL9-2" value="&lt;div&gt;Every 5 seconds&lt;/div&gt;" style="rounded=1;whiteSpace=wrap;html=1;" vertex="1" parent="1">
          <mxGeometry x="40" y="40" width="120" height="60" as="geometry" />
        </mxCell>
        <mxCell id="MSVGr6HDQpO0jh0SAKL9-3" value="" style="endArrow=classic;html=1;rounded=0;" edge="1" parent="1">
          <mxGeometry width="50" height="50" relative="1" as="geometry">
            <mxPoint x="100" y="120" as="sourcePoint" />
            <mxPoint x="100" y="160" as="targetPoint" />
          </mxGeometry>
        </mxCell>
        <mxCell id="MSVGr6HDQpO0jh0SAKL9-4" value="Insert unix timestamp + 10 seconds into users table in the last_login column where the user is the logged in user" style="rounded=1;whiteSpace=wrap;html=1;" vertex="1" parent="1">
          <mxGeometry x="30" y="180" width="140" height="100" as="geometry" />
        </mxCell>
        <mxCell id="MSVGr6HDQpO0jh0SAKL9-5" value="users" style="swimlane;fontStyle=0;childLayout=stackLayout;horizontal=1;startSize=30;horizontalStack=0;resizeParent=1;resizeParentMax=0;resizeLast=0;collapsible=1;marginBottom=0;whiteSpace=wrap;html=1;" vertex="1" parent="1">
          <mxGeometry x="280" y="185" width="140" height="90" as="geometry" />
        </mxCell>
        <mxCell id="MSVGr6HDQpO0jh0SAKL9-6" value="last_login" style="text;strokeColor=none;fillColor=none;align=left;verticalAlign=middle;spacingLeft=4;spacingRight=4;overflow=hidden;points=[[0,0.5],[1,0.5]];portConstraint=eastwest;rotatable=0;whiteSpace=wrap;html=1;" vertex="1" parent="MSVGr6HDQpO0jh0SAKL9-5">
          <mxGeometry y="30" width="140" height="30" as="geometry" />
        </mxCell>
        <mxCell id="MSVGr6HDQpO0jh0SAKL9-7" value="user_id" style="text;strokeColor=none;fillColor=none;align=left;verticalAlign=middle;spacingLeft=4;spacingRight=4;overflow=hidden;points=[[0,0.5],[1,0.5]];portConstraint=eastwest;rotatable=0;whiteSpace=wrap;html=1;" vertex="1" parent="MSVGr6HDQpO0jh0SAKL9-5">
          <mxGeometry y="60" width="140" height="30" as="geometry" />
        </mxCell>
        <mxCell id="MSVGr6HDQpO0jh0SAKL9-9" value="" style="endArrow=classic;html=1;rounded=0;" edge="1" parent="1">
          <mxGeometry width="50" height="50" relative="1" as="geometry">
            <mxPoint x="190" y="230" as="sourcePoint" />
            <mxPoint x="250" y="230" as="targetPoint" />
          </mxGeometry>
        </mxCell>
        <mxCell id="MSVGr6HDQpO0jh0SAKL9-10" value="" style="endArrow=classic;html=1;rounded=0;" edge="1" parent="1">
          <mxGeometry width="50" height="50" relative="1" as="geometry">
            <mxPoint x="100" y="300" as="sourcePoint" />
            <mxPoint x="100" y="360" as="targetPoint" />
          </mxGeometry>
        </mxCell>
        <mxCell id="MSVGr6HDQpO0jh0SAKL9-11" value="Get count of last_login value for every user where last_login is more than the current unix timestamp" style="rounded=1;whiteSpace=wrap;html=1;" vertex="1" parent="1">
          <mxGeometry x="40" y="380" width="120" height="120" as="geometry" />
        </mxCell>
        <mxCell id="MSVGr6HDQpO0jh0SAKL9-12" value="" style="endArrow=classic;html=1;rounded=0;" edge="1" parent="1">
          <mxGeometry width="50" height="50" relative="1" as="geometry">
            <mxPoint x="100" y="520" as="sourcePoint" />
            <mxPoint x="100" y="580" as="targetPoint" />
          </mxGeometry>
        </mxCell>
        <mxCell id="MSVGr6HDQpO0jh0SAKL9-13" value="Is the total amount 1?" style="rounded=1;whiteSpace=wrap;html=1;" vertex="1" parent="1">
          <mxGeometry x="40" y="600" width="120" height="60" as="geometry" />
        </mxCell>
        <mxCell id="MSVGr6HDQpO0jh0SAKL9-14" value="" style="endArrow=classic;html=1;rounded=0;" edge="1" parent="1">
          <mxGeometry width="50" height="50" relative="1" as="geometry">
            <mxPoint x="170" y="630" as="sourcePoint" />
            <mxPoint x="230" y="630" as="targetPoint" />
          </mxGeometry>
        </mxCell>
        <mxCell id="MSVGr6HDQpO0jh0SAKL9-15" value="Print the total amount with &quot;player online&quot; after the number" style="rounded=1;whiteSpace=wrap;html=1;" vertex="1" parent="1">
          <mxGeometry x="240" y="600" width="120" height="60" as="geometry" />
        </mxCell>
        <mxCell id="MSVGr6HDQpO0jh0SAKL9-16" value="Yes" style="text;html=1;align=center;verticalAlign=middle;whiteSpace=wrap;rounded=0;" vertex="1" parent="1">
          <mxGeometry x="170" y="600" width="60" height="30" as="geometry" />
        </mxCell>
        <mxCell id="MSVGr6HDQpO0jh0SAKL9-17" value="" style="endArrow=classic;html=1;rounded=0;" edge="1" parent="1">
          <mxGeometry width="50" height="50" relative="1" as="geometry">
            <mxPoint x="99.5" y="680" as="sourcePoint" />
            <mxPoint x="99.5" y="730" as="targetPoint" />
          </mxGeometry>
        </mxCell>
        <mxCell id="MSVGr6HDQpO0jh0SAKL9-18" value="No" style="text;html=1;align=center;verticalAlign=middle;whiteSpace=wrap;rounded=0;" vertex="1" parent="1">
          <mxGeometry x="100" y="680" width="60" height="30" as="geometry" />
        </mxCell>
        <mxCell id="MSVGr6HDQpO0jh0SAKL9-20" value="Print the total amount with &quot;players online&quot; after the number" style="rounded=1;whiteSpace=wrap;html=1;" vertex="1" parent="1">
          <mxGeometry x="40" y="750" width="120" height="60" as="geometry" />
        </mxCell>
        <mxCell id="MSVGr6HDQpO0jh0SAKL9-21" value="" style="endArrow=classic;html=1;rounded=0;" edge="1" parent="1">
          <mxGeometry width="50" height="50" relative="1" as="geometry">
            <mxPoint x="175" y="780" as="sourcePoint" />
            <mxPoint x="480" y="720" as="targetPoint" />
          </mxGeometry>
        </mxCell>
        <mxCell id="MSVGr6HDQpO0jh0SAKL9-22" value="" style="endArrow=classic;html=1;rounded=0;" edge="1" parent="1">
          <mxGeometry width="50" height="50" relative="1" as="geometry">
            <mxPoint x="375" y="630" as="sourcePoint" />
            <mxPoint x="480" y="710" as="targetPoint" />
          </mxGeometry>
        </mxCell>
        <mxCell id="MSVGr6HDQpO0jh0SAKL9-23" value="" style="shape=image;verticalLabelPosition=bottom;labelBackgroundColor=default;verticalAlign=top;aspect=fixed;imageAspect=0;image=data:image/png,iVBORw0KGgoAAAANSUhEUgAAAUAAAABnCAYAAABxTpuQAAAdMklEQVR4Xu1dedhWQx+eJ18bodCCSpJLFBLSQlmiQjsVWpWURMoa33/Cd11ffKWNtMlWaZGlkFba91IqqdCq/W3R/p17pjkzZ56zPu/7vD05v7kul97nzJnlnjn3+a1zEqeW/PcUo0IIEAKEQAwRSBABxnDVacqEACHAESACpI1ACBACsUWACDC2S08TJwQIASJA2gOEACEQWwSIAGO79DRxQoAQIAKkPUAIEAKxRYAIMLZLTxMnBAgBIkDaA4QAIRBbBIgAY7v0NHFCgBAgAqQ9QAgQArFFgAgwtktPEycECAEiQNoDhAAhEFsEiABju/Q0cUKAECACpD1ACBACsUWACDC2S08TJwQIASJA2gOEACEQWwSIAGO79DRxQoAQIAKkPUAIEAKxRYAIMLZLTxMnBAgBIkDaA4QAIRBbBIgAY7v0NHFCgBAgAqQ9QAgQArFFgAgwtktPEycECAEiQNoDhAAhEFsEiABju/Q0cUKAECACpD1ACBACsUWACDC2S08TJwQIASJA2gOEACEQWwSIAGO79DRxQoAQIAKkPUAIEAKxRYAIMLZLTxMnBAgBIkDaA4QAIRBbBIgAY7v0NHFCgBAgAqQ9QAgQArFFgAgwtktPEycECAEiQNoDhAAhEFsEiABju/Q0cUKAECACpD1ACBACsUWACDC2S08TJwQIASJA2gOEACEQWwSIAGO79DRxQoAQIAKkPUAIEAKxRYAIMLZLTxMnBAgBIkDaA4QAIRBbBIgAY7v0NHFCgBAgAqQ9QAgQArFFgAgwtktPEycECAEiQNoDhAAhEFsEiABju/Q0cUKAECACpD1ACBACsUWACDC2S08TJwQIgcR33808RTAQAoQAIXA2IHDqlKAr+X+/MaOqqnfK/rdqg7HEDz/8SAR4Nqw8jZEQ+IcicJrTUpgdSM37NhCduK7/X92A64np0+cQAaYAPd1CCBAC6UfAm+CctGXW0yVEQYSKBKUEyQlw1qz5RIDpX0fqgRAgBHIAASfRmSQo1WPVka4Cnzyp1Gf5e2L27EVEgDmwMNQEIUAIZB+BMLY92YsiQzdpUFePnRKgToSJefOWEgFmf92oBUKAEMhRBJKlOa/mlZ3PXS0WpCpJUBCjVIsTixatIALM0YWjxggBQsCfrKLi43RceNkFTelR9/aaJAgpkNsAlyxZRQQYdT2oPiFACAQgkHO04k54fvY+Ff6ih81IR8ipUydtp0hi+fJfcm6ktCkIAUKAEEgBAT/nhltzpv1PeXmdDhAzbhB/S+kPRJj4+ee1RIApLBjdQggQAuEQSD3Oz9m+m4NEti1VXNNBIn83PcCCCC0CXL16PRFguHWkWoQAIZBWBJKpKKy9Tw5LEJ0e7iLVYfGbkv5O2wDXrt1IBJjWRaXGCYE4IpAarfjZ+4Ci23Xp0dVRFp7ek/wnZfuT6XBKDU6sX/97aiON45rSnAmBGCNw4sQJtnPnTrZjx3aOQvHixdkllxRlefLkSRmVZELzpiNnbi+nttME56A+LuWZEqFJgiBH1Ets2PAnEWDKy0c3EgLxQGDFiuXsp59+ZEeO/O2YcIECBVmNGrezihWv9wDCP2UtDHoyzs+sm3zYgTsRJnt/NQlw06YtRIBhVoHqEAIxRWDcuM/Zpk2bfGd/xRVlWJMmTXMMIa+MED22z0sC1D3CIuRFBT5LG6H0Bif++GPbWU2Ax48fY//6V94cAz67DU2a9DVbvXq13cytt1Zhd9xRM7vN0v0ZgEBW1n42ePD79kjy5Emwrl27sXPOOScDRpeeISxYMJ/NmjWTN37eeeey2rXrsMsuu4z/vWXLZjZlynfs4MFD/O+aNWuxW265NeJA3OnHyxaYrAYnH42l2/+kOgyPL4q0F+JvHgi9efOOs5IAN2/+k/3wwxRWvvy1rEqV2yKCnr7qgwe/x/bv32930LhxE1a27FXp65BazjUEVq5cwb79drLdH2xgLVu2zrX+c7sjEET//u9aau8Ri/zOY61ateH/18vBgwfZyJEjLBI8yAoWLMieeupp7XI0agnrANEPODDv0R0iJhHKazoJJrZu/SvaKHN7FbT+YIRdu3Ytmz59GgccpXnzFqxUqVJncFSqaxDf+++/Z/8ACeHZZ5/7R0sIGQF8Lg3i66+/ckj3VapU4VKPLHJ/rlu3hl1zzbXWf9fk0sjS08327dstcvuQN16/fn1rPuVdO4LGA2xQ2rRpy4oWLZrSgPxPelFNqrQ2vRt1+IGTBFUOsAyBgeqMf/M4wG3bdmY8AR47dowtXLiAzZ8/j+HfsuTNm5cTTKaUFSsgIUyyh1OsWHHWunWbTBkejSObCLz//iBDum/KrrpKSffDhw/lXlJZ2rVrzy6++OJs9nrmbl+8eDGbOnUKH8Azz3Rj+fLlcx3M33//zfr168uv1a59L6tU6aaQgw7vIHFzhOi/6eQp7X4YhFR1lR1QeH9BgidOWAS4Y8fujCXAffv2sRkzpnGpz80oWrJkSfbII4+FBDv91b766ktLQlhldwTVvFatO9PfMfWQdgQg3b/33kC7n0QiwZ57roct3f/yy2r25ZcTHeOAyliiRIm0jy1dHaxatcqS7L7kzT/xxJOscOHCrl0dOJDFBg4cwK89+GB9du2113GCCSphM0TcM0BU+yobRNr5RM/S7mc6PmQIDLcB7ty5J3ikQTNJw/XJkyex5cuX+7Zcs2ZNVrVqtTT0nlqTgwYNdEgITZtCQiiXWmN0V0YhgDCQSZOUdF+8eDFL3Wtnj3Hu3Dls5kzhLEC56KKLWIcOT2TUHKIOZteuXWzIkA/4bbVq1WK33VbVtQkIKBMmjOfXMGfMPUzxJ0C3GD/ZqjrSCr/oBOkMgFZOD5n6JohRqMVcBd61a29GEuC77/Zlhw8L7xIK3rjmm6BFi0dZ6dKlw2Cd9jqQEAYNEm9BOd7u3Z8n+1/akc+dDiDdOaX7quzOO++0Oz906BC3l+3fv4+VLFmKNWzYiJ177rm5M7g09vLZZ5+y33/fxIOdGzZszK6++mpHb1u3bmVjxoxiUIMRCgObfNjiZ/Ozqc7BTsmk6E9+KgRG2v0k8dlhMHv27M84AtyxYwcbNmwIxyBPnnMsm0IlblcYOlS8jVBg/wPBZEr5+eeVDCqwLLD/tWv3eKYMj8aRTQQg3e/bt9dupWnTh1m5cv986R4vdoT+INwM5fLLS7LrrxdBz+vXr2fr1q09/Tzms9Tkjuz888/3RDpK1gcaUfWT1V31oSOV66u3L2x/6pou9aFtXOcS4N69mUeAixYt4p5exM/ddNNNnOyWL1/GvvnmGxtceH4fe6xlNrd1zt0+ceJEtmrVz3aDVatCQrgr5zqgls4YAiCBAQP62/1DG3n++RdiI93/9ttvbOLEL7iU51aQDdKwYQNWpkzZHFsjb6cHp0bej6zj5wARZCecHjoJ2irw3r1ZGScB7t69y7IjOL1nWACdYOBcqFatesqAQ8pEao8sCFi+9NJLGcgXZLtnz27LS3SCb/KiRYtZ3q3aXLXxKpAQ9u7dY19+6KFmnhICNhJsRggfwMMFoyxIvlSp0uyuu+7mYQQzZsxgwAGlUKFC7N5772NHjx61ww1kR1BJvNOQGNu2bSubM2eOPS6oMnfffY/jTY15ynnD7iOTyBOJPDzf02/uv/76K4N9TBbYiRAom5WVZbW5kOF6hQoVUlorePyXLFnC12Pnzr/sPuSaPPDAg74hFzqGQoVrxP766y82bdpUK7NhI19fFGAPWzL+cwtqhnSvOziKFy/hkO6RJbF48SJ7fMiPveOOO+y/3TDCGmP/LVmymMfZoQDvK6+8ktWrd7+vJCUbxlx+/HEW27hxg90GruXPn98SHCrzFDXMLSfKgQMH2Hfffcv7wj5EgVe4TJkrWZ06dZPiA8P36SbdOe/28wDrUqJyhqhvADu9wMIDrKvBif37D2YcAbqBN2BAP0sF2WdfgvRXuvQV4XE2auLhmD1bEeDdd9fmHmf5ULg1XKFCRdagQcOkSyAxBIzKgo38wgsvJj1MaHvmzBls3rx5Nsm49XPPPbWt8IOpdh29X4RigKRkAWm2bNnKFYdDhw5adslBjvzN++6rw26++Ra7/rJly3jojt+8URn34F6zjB37ueWlX2P//Oyz3ayH8kdOfrKAWEDsUcrSpUv4Axc0Lr+233rrTRtD4FSsWDHHuMzxYD+5aRV4+YIEveYTdN3ECMHxuMdrbvnzF+AEW6RIEc91RZt//vmnL6QFC55rBS+3zuFQnFM81AcvlLDODr9BBjlC3K6rdDjzu7/oyfnND2fwszghBuEvKMA/kZWV+QQIgunXTxEM3jxQQbJTPvpopGXc/T1yE9WqJT/MK1eu5BtaFoQ+PP54e0fbIKOPP/7EkkB2RO4Tks6NN97I74MnElKDLNiIL7/8imubo0ePtiSwdfa1cuWuZs2aNbMXH567NWsUeQUNrE4dJ3mifp8+/7OD0i+88EIuCWzZssXRlBtmXn1hU8KZYLbhNza3cUEq+/jjj4KmlHS9bt16rHLlyo7fEeKxZ4+S7oEhsJSlf3/ny9m8rmMUdkBXXOFOxps3b2bYu0EvBtlPoULnsy5dumSMuh6U7SHH7WYvdMv6QH2lCjsJUSc/pxosJEFuAzxw4FDGS4CQUmSkOSYM+x/ebNkpb775hmtsIVQGqMJ4e5qqBfoT8V/dWYECBezuv/higiUh6Pa/apaaqSQeZK0MHTqEq4V6gapy+eWX85/++OMPR5C3Xu/pp7uyCy64gP9kki1+g9SCB0YvM2ZMt1Ssn+yf0Fe3biorZfToUVw9lQWqH8wA5ctfY5FYIUutXWFJqnMdqhVU8Weeeda+B5KAnvlirgdSo0DQlSvf7FAJvdYND/UHHwx2SLioK3HKmzef65oIh5iKycM95vxln8LUUMoy6h9nIBOTSMy9Zb58sf4vvviSTShB170wQjtQpfHScNtnGC/mpO8zeFyHDx/m2LeQaqtXr8H3EUh6zpzZbMOGDQ6I3Ug9O8+OeW+4eL7wNOPv/EDv+icv9e9/6GcAin+jLT0eUMUAnj4O62wgQJNg4FyoXj11+5+bdAACgIoHp4tepkyZwjNQ9IJ6t9yi1EgYyPfuVR5CUwKARAOCkwXEAFVazyLAgwi1Ricl1McD0qWLyq+E/fDtt3s7xmPiYT4oeNjatm3HiR0F6jVskLLAZgcSNe1FIG7MTc++gWom21m4cCFXU82C/Oz777/f8fCGeeBMUnbDCe24rQnwrFixot2NiTkuwLRw220qbxyHG/Tr189BKAj2feqpLnY75gsHpNW+vZLuzZezed0NI7ysmjVrbuONtf/kk48dewQD6NChg6W2F+djwVrAzqzshQnWqFFjK+j42iRoTXzKli3LWrR4JMwS8DrQjGbPnm17fkPfaFW84IILecwg9m2U4kZ68n7TBuhl90N9dRKMcHrozg8Z+qKTYOLQob/DU3OUGeVgXai/uv0PNi9T4onS3fTpkI6U/Q8SRseOT9pSltnWhx+CwJS6DJUOjgQUxH29+67T/vfSS0pCwAOgJ9AjNap9+w6uxmk8CL17/9dBOLD/NWrUyDGk/v1BuEolwwZ/5JFHeR208c47bzskt7vuwgujBr8OKWHgwIG2bQzjQfiC14km8LzrKnfDhiAaEQbx+edjklToBx+Eul4pynLwum44Qco3k+9lwwjNgCNLFn1N8Nsbb0DCF7YeFPO6/H3CBEjvyr5XuHARrjJ6XTfbMe83r5sYeeG9bt06hheAXhBUDCcUitmPvg4m2HhJYh/JYs7Ja3FALDCL6M7GyAtp3YC9hJfNrbf6nwzjdeSV7DOZ+JSKizq600Peo0594TVOOz2UJGiSYOLw4cwmQBCfTjD58uXlKkh2CghNt/81b948KcBTbx+ECcO+LNWrKwKEqvjFF077H97cssD+k5V1gP8JdbBz586exm3UGTVqlBVbpex29esnEwoeBkgmsuiYmPfDS4z5yTJu3Dhrg6t0vUqVbrTCG4QX0q1Ast22bZt9qUmTJuy665DqxDjRyqOQ8DckMJOsw65TVJymTv3BklKUFKuvCST8kSNHOvDp0cM9KP3777/nTilZcIDBww8/bP+Nl41u/zP3StB1EyO07XZIAqT2IUNE7KvcKz179uT/Rv/oR5aiRS+xpPDLbG+siTFs5HoWFUgX+y6o4B6Ec6FgT6GPKOXkyROWY2Yzl8JAgp07d7LS55yOnHDqsvsRV0L1dYbAYHx6OIwuAcqsEP07INIrLH6zbICHDx/JaAlw2bKlVgiCOGkCpXTpUtk+YOCNN3rZx2bDhtKxY0ffdTYJEBJVjRpCosIbc+VKZf/TH0QQGQhJFhAHCMSvjBr1mUWAyjbXtWvXJHXCJF20h3oISp08WamkBQrkZ7AfSjsSpMP//Octx5HhUTY46nbq1Mk6Bv0S7gmEh1kWcfJNt5TCIdas+cXKJvg8Ek4mAeprYq5XxYoVuLroVj78cIT1MlTmibp1Yd4Qkov58sUcX3rpZVtaDrpuYuT38sZhH/ra6fvcnGvUNTNJ3e1+EEPfvn3YgQMHeWhR27Ztue01akFoDuy48LRWqHAdg8fbvYQ7CMFNSjSlPLRvhsDI+5T9LzkEhjtBrLd/RhOgSTD6Ro+6OKhvSgdQWe65R6izXsUkpVatlAoOD+CePcr+p0sI33zztRUftsRuVpeevPrS24MdBcRmFvPBw3XgAsO/PAASD6tur3Obe1T8kNrVvXt3fpvfAxu13VRwMtfkiSeUuuhHaubY9JchrkmCx7+TpfvijvzeoOtRMBozxmlOuP322+1UO3M+UfHVSd3rXp2sYcZA9lWqZfz48dwpiANU4TBECZb8/AnRJEJvEpS2PyFFunl/ZRzgaQI8mtEEiJxg3f4H+5k0wqeyQMgw0dVZnF7ht9gwPkM9k4DDEwpvKoogInEMkCyvvNLTlhBg2EYUvSxBYxcS42d2faFSuksuJi5Qr+UY0YB4gJyZKEuXLnWk68E7i/Aa3ZbmhykcBAjURRkzZrTD/oc4PykVR10XQWZK7Q/CSdgxB7iuCfoWpKbsf4LUks+oEy9Dcd4diiD4Hvbf4uWrTA1woCAgXRbzOgLz9ZepiZHbmsi24NhCPrEssH9KO7e51l27PsNjAGVAchDecJTo3mS3+vCIDxs2lF+Cjb1MmTJBzbpcF1Qybdo0HoEANfiVV9xDtOTN3sTo9PSq+oquTBJUUqBMg5OeYBn8rIKg7ROhjxzJXAI0CQZeSqgg2SkjRoxwODQQMf/AAw+4NgmVEQ+nTmKIepfGXSEBTLDvhQcQkogseEj1oGX9XrND6XGVXj5cR+aCzLs064u3rHo49euIUWvRIjkpHZsSWRCyeNXT25LZMGb/fg9s1PUx18QPJ4wHoTdeuAaRmj4282UoVEURJ4kCD7HubEKiv34YQND1sBghy0U3JyCQ/tVXX7XHAbOF7omH00o6R7yw9lo3r/o6bjr5Rl1L1EeSgTwZ57XX/u3TRLLs5SRE9xNhdGnQjQT1A1FNFVg6RoAPPw4rkwnQlFjg7Xz00eyd/9erVy+HdxCb7fHHVWiHXC1sOBjS8d0DWYQx+Sn7b5OETAnBlABgU0GIhenZRCzZsGHDLGeJOkofneBN7xVOYGIjB+XVB67DuwcniCxec5fXQfyQgBo0aODYxEEPbNSHxsTRaw54ScCmqq+J+dIJIjV9bH7EGyTdB12PgtGCBQsckQLIWmnTpo09VPNF6vfiwoM9btxYflJ1EEnqWOQkASLbKQwBugU762MyQ2P0+n4kKM1AbiqwjAvENZ4JcvTosYxQgRG8qcfSAQh4pXRvLeLm9LgnBH/CiRG2YJHhATYLRHWQ1w033MDjrZCjixxUPUgWDyXCI3TyQniObv+D1KVLCNjYkyerb0igX8S2yb5w5DhSxkA0+rdMUa9IkcLcgeFV8AD27etUv2H3E2Tu7r2T4RF6X5h73bp1uWcXahKIH+oQ4vu2b99hzadcUgyZOS8cSaY/sGHXQ9aDJA3Ptl50nKDyIh8Y9fSxu60JSE3fM5ibVzhGr16vO9qDqiyPczfHhOweXboPuh4FI2Ts6Bk5UJVh05UFZ2MuWKBSC/E7DgOGrU6OF0H28+fP5x5t7Fs49qIQIGyACI9CgccYjq6wxSQy7GlkLCmTQjiKcZP+MAYvInSmxClp0fwSnJQITW9wRhFg795OG0gY8Fu3VnaSMPVhm9Dtf2HuQR08aK1atXQQixsBIWxBj6cTcX29HTF5YfuE/a9xY3f7H9oAmSHE4vhxkdCPguDwIIcOpC3drhU0HjcCDHpgg9o0rwMnkW6mnElBbYAg8ZDLDBlZ34/U9DbNlyEe1h49lP3PxAkvrfvuU/a/oOtRMDL3vrmv8QJAQLr5kvTDKCoBoi0ZOgNBIDsFZhy0BQL2Oq/TL/DZj/TEuLy//4Gr6gRoeSS+sAXqDhH7OCzrjR+OnrODSMC9cJ3rNpAwXSG74bXXXgtT1a5jSgdhbkaWBCQ7U20NkgBk28hpHTp0qGvand4/3uTAQRbE03nZ/1Dn008/dWSNwDzw2GPB5gGQzeDBgx19+eEAifuhhx5yVAl6YMPgatYBTsOHDw+V4wrpp2XL5MyVIFLT+zRfhrD/yTxp1EPsqa6RmNJ90PWwGJl732tfS49zUPAwxo42nnzyyZQ/ThS0fsEe3aAWkq97EaK3GqxIUHd4qfxf8zRoEfenVGBxKELi2LHjZ5wAhbqgjhsPA59Qu9qGqWrXef311x32P7xpYbB1++gzTrqAMd7r0Mvx48cZHsKqDglBHxi8rLAH7t69O2m88GgjjQtHSiH9SBbk3HrZ/8TDO8uuK1TBp0PH4IEEYSuT6pIbiJg/jhzT08tQD2q7nv8LO2LUF5HXosEWOnbsWMvDqeLy9LrACmmIXlIFPpOqY4ivmOmkprc1YsRwQ1WuZ6vKQrrv4xhmz56vOuL//K5Hwcjc+3772m8fYbDQPpA5BPXZlIwjPSihK/tTRypEaWZ/YChBJKg7PbwIUB2BpaRBrgJnAgGGxjsbFXH+m27/EyqPOFEa6iTOzYMKBttbiRKXBoYNpDIUhDng4Ub2BGyX+C/qeW1KolRhHggbkR+rjjIubABkeehhMOmcf9ixASfYhGWYB+LJcFRVUChH2PbP9nomPpgPNICo+bfpxcGbHIOI0ZsEzbMDnUdfSbJUX4VTh6DGngBNqclPOkjvxki9dRA1JA89VEbY/Wqn3ijdSQjkOgLu4S36MJLzgOVVZyqcSHdTKXKoJY/DTz4IQcYHCntgrCRAP5Un19c/xQ6F3U8FDKdiBkixa7qNEMhhBLJHgrparIe9CAIUp8Cogw/0U6BjqgKb9r9OnTqnzUicwzuFN5ddu186xkRtEgLZR8A940Oqs/L7H7b8x3nTKQV6E6B+FmCyF5hLgNbBkGfcCZJ9EP1b2Lgx2f73/POZ80W5oPlLu5/u7YIDJ7V0paDe6DohEA2BIJtecGve0qCfKmyqv2ZcoPT4SrXYGQZzQpwIHQcChPQ0a5bympYv7+0dDF6s3K0Bu1+fPsl2P3yoiAohkOkIRCNHr/xfJfXpkqGKi0yOC5THYjlDX4QqjPAXGRdoEeCJf7wEiPgyPTugXj1kB1TJ9L3Dxwe7n35QAOx+OKqICiFw5hFInTqiHILgJgXKw27lNdlechiMeRiqPBbr9JH4cZAA33nnHcfpIFAfZQrRmd9E3iOYO3eu47seCJnBcexepyRn8lxobISARMCP/JSEp/AyCVDP9BC1koOivSRAkQEigqLx/1iowLT1CAFCIPcRiKr+upGf+E2P/0v+FKb7wQgyRlAdhKrOAdQIMBNS4XJ/aahHQoAQyCkEohGdd69uaX7uThCn08T9UARBgOrD6Or7IEoCtJwgmXIaTE4tBrVDCBACZxcCXvnNQR5gU/3V7X9mELSKCVTfBIYa/H8IhhWDS6tv8QAAAABJRU5ErkJggg==;" vertex="1" parent="1">
          <mxGeometry x="490" y="660" width="320" height="103" as="geometry" />
        </mxCell>
        <mxCell id="MSVGr6HDQpO0jh0SAKL9-24" value="Looks like this" style="text;html=1;align=center;verticalAlign=middle;whiteSpace=wrap;rounded=0;" vertex="1" parent="1">
          <mxGeometry x="490" y="630" width="100" height="30" as="geometry" />
        </mxCell>
      </root>
    </mxGraphModel>
  </diagram>
</mxfile>
